<?xml version="1.0" encoding="UTF-8" standalone="no"?>
<!-- Created with Inkscape (http://www.inkscape.org/) -->

<svg
   xmlns:dc="http://purl.org/dc/elements/1.1/"
   xmlns:cc="http://creativecommons.org/ns#"
   xmlns:rdf="http://www.w3.org/1999/02/22-rdf-syntax-ns#"
   xmlns:svg="http://www.w3.org/2000/svg"
   xmlns="http://www.w3.org/2000/svg"
   xmlns:sodipodi="http://sodipodi.sourceforge.net/DTD/sodipodi-0.dtd"
   xmlns:inkscape="http://www.inkscape.org/namespaces/inkscape"
   width="56.186829mm"
   height="13.662545mm"
   viewBox="0 0 56.186829 13.662545"
   version="1.1"
   id="svg885"
   inkscape:version="0.92.4 (5da689c313, 2019-01-14)"
   sodipodi:docname="logo--pb--branco.svg">
  <defs
     id="defs879" />
  <sodipodi:namedview
     id="base"
     pagecolor="#ffffff"
     bordercolor="#666666"
     borderopacity="1.0"
     inkscape:pageopacity="0.0"
     inkscape:pageshadow="2"
     inkscape:zoom="4"
     inkscape:cx="103.07605"
     inkscape:cy="26.952819"
     inkscape:document-units="mm"
     inkscape:current-layer="g1517"
     showgrid="false"
     fit-margin-top="0"
     fit-margin-left="0"
     fit-margin-right="0"
     fit-margin-bottom="0"
     inkscape:window-width="1920"
     inkscape:window-height="1017"
     inkscape:window-x="-8"
     inkscape:window-y="-8"
     inkscape:window-maximized="1" />
  <metadata
     id="metadata882">
    <rdf:RDF>
      <cc:Work
         rdf:about="">
        <dc:format>image/svg+xml</dc:format>
        <dc:type
           rdf:resource="http://purl.org/dc/dcmitype/StillImage" />
        <dc:title></dc:title>
      </cc:Work>
    </rdf:RDF>
  </metadata>
  <g
     inkscape:label="Layer 1"
     inkscape:groupmode="layer"
     id="layer1"
     transform="translate(-78.259637,-124.52066)">
    <g
       id="g1517"
       transform="translate(0.51971726,-4.6302083)">
      <g
         inkscape:export-ydpi="1115.2399"
         inkscape:export-xdpi="1115.2399"
         inkscape:export-filename="D:\Felipe\Projetos\xram-memory\design\logo-xram-memory\export\variante03.png"
         transform="translate(48.797088,7.6292043)"
         id="g1012">
        <path
           inkscape:transform-center-y="2.5280669"
           inkscape:transform-center-x="19.135861"
           d="m 31.866924,132.89102 q 0.20137,-0.17162 0.301725,-0.26271 0.110262,-0.10227 0.137993,-0.16767 0.03763,-0.0766 0.002,-0.13798 -0.03564,-0.0614 -0.10627,-0.17363 l -0.881213,-1.20689 q -0.332788,0.61459 -0.625962,1.18429 -0.06537,0.14192 -0.09179,0.22841 -0.02641,0.0865 0.01055,0.169 0.04686,0.0713 0.159084,0.17034 0.12212,0.0878 0.354487,0.24298 l -2.028056,0.12654 q 0.295775,-0.18811 0.458849,-0.29372 0.162413,-0.11617 0.272672,-0.21849 0.110262,-0.10226 0.198732,-0.21388 0.08782,-0.12212 0.223172,-0.33204 0.202046,-0.33073 0.39353,-0.66078 0.202045,-0.33073 0.42192,-0.71559 l -1.009259,-1.38976 q -0.138617,-0.18222 -0.219806,-0.29379 -0.08119,-0.11158 -0.192091,-0.1895 -0.100994,-0.0891 -0.265371,-0.17431 -0.153813,-0.0859 -0.438988,-0.2377 l 2.154809,-0.13446 q -0.169023,0.18021 -0.258156,0.2812 -0.08914,0.10095 -0.116207,0.17692 -0.02773,0.0654 0.0086,0.13732 0.03564,0.0614 0.116833,0.17298 l 0.705626,0.94213 q 0.13272,-0.25217 0.276002,-0.50501 0.143283,-0.25282 0.274025,-0.53668 0.05679,-0.10958 0.07396,-0.17428 0.02707,-0.0759 -0.0086,-0.13732 -0.0363,-0.072 -0.147861,-0.16043 -0.111558,-0.0884 -0.311578,-0.23506 l 1.954117,-0.12193 q -0.297094,0.167 -0.460166,0.27261 -0.16373,0.0951 -0.273991,0.19735 -0.110916,0.0918 -0.208637,0.2251 -0.08781,0.12213 -0.233075,0.34326 -0.106963,0.15514 -0.279957,0.44164 -0.163089,0.27527 -0.412676,0.69379 l 1.134677,1.53039 q 0.161719,0.21259 0.264693,0.33341 0.102975,0.12082 0.215194,0.21986 0.122119,0.0878 0.287154,0.18355 0.175596,0.0951 0.482559,0.2562 z"
           style="font-style:normal;font-variant:normal;font-weight:normal;font-stretch:normal;font-size:medium;line-height:1.25;font-family:'Asmath Free';-inkscape-font-specification:'Asmath Free';letter-spacing:-0.5291667px;word-spacing:0px;fill:#f9f9f9;fill-opacity:1;stroke:none;stroke-width:0.26458332"
           id="path971"
           inkscape:connector-curvature="0" />
        <path
           inkscape:transform-center-y="2.3020993"
           inkscape:transform-center-x="15.005914"
           d="m 36.683705,127.88233 q 0.158442,-0.01 0.310276,0.0443 0.161736,0.0429 0.295081,0.14064 0.132683,0.0871 0.215852,0.23042 0.0825,0.13271 0.09305,0.30171 0.01714,0.27463 -0.171034,0.48785 -0.178267,0.20199 -0.452899,0.21913 -0.211256,0.0132 -0.38751,-0.0925 -0.166351,-0.11687 -0.302332,-0.25683 -0.13664,-0.15053 -0.249519,-0.26014 -0.102974,-0.12082 -0.187475,-0.11555 -0.07394,0.005 -0.171,0.14852 -0.08716,0.13269 -0.171016,0.31819 -0.07396,0.17427 -0.126788,0.34724 -0.05349,0.1624 -0.04888,0.23633 l 0.121932,1.95411 q 0.01846,0.29577 0.06069,0.46279 0.04158,0.15647 0.14323,0.25616 0.100993,0.0891 0.274616,0.15253 0.173619,0.0634 0.445596,0.17367 l -2.397752,0.14961 q 0.234376,-0.15247 0.367078,-0.23498 0.142605,-0.0938 0.209955,-0.20397 0.06735,-0.11024 0.07925,-0.25944 0.01124,-0.15976 -0.0059,-0.43439 l -0.135115,-2.16537 q -0.01648,-0.26407 -0.04683,-0.41063 -0.01979,-0.14722 -0.0891,-0.23833 -0.06997,-0.10167 -0.201335,-0.16771 -0.132028,-0.0766 -0.372317,-0.18884 0.376306,-0.0871 0.739412,-0.21581 0.363108,-0.12869 0.701793,-0.30888 l 0.07184,1.15134 q 0.104985,-0.18681 0.240342,-0.39674 0.145919,-0.21057 0.315599,-0.38022 0.179585,-0.18087 0.38425,-0.29968 0.214569,-0.13003 0.446951,-0.14453 z"
           style="font-style:normal;font-variant:normal;font-weight:normal;font-stretch:normal;font-size:medium;line-height:1.25;font-family:'Asmath Free';-inkscape-font-specification:'Asmath Free';letter-spacing:-0.5291667px;word-spacing:0px;fill:#f9f9f9;fill-opacity:1;stroke:none;stroke-width:0.26458332"
           id="path973"
           inkscape:connector-curvature="0" />
        <path
           inkscape:transform-center-y="2.0555589"
           inkscape:transform-center-x="11.116142"
           d="m 41.2687,131.63632 q 0.09506,-0.006 0.188156,-0.0435 0.09309,-0.0377 0.174293,-0.0957 -0.01917,0.20267 -0.103685,0.3776 -0.07528,0.15315 -0.215245,0.28913 -0.13997,0.13599 -0.3915,0.18349 -0.11487,0.0284 -0.266703,-0.0257 -0.141931,-0.0654 -0.231705,-0.1446 -0.100994,-0.0891 -0.160403,-0.19147 -0.06007,-0.11289 -0.110884,-0.24758 -0.15185,0.11552 -0.313605,0.24225 -0.151191,0.12608 -0.314264,0.23169 -0.152507,0.10501 -0.296434,0.17756 -0.143925,0.0726 -0.260115,0.0798 -0.274633,0.0171 -0.513605,-0.074 -0.22841,-0.0918 -0.407961,-0.25025 -0.180209,-0.16903 -0.289115,-0.38491 -0.099,-0.22711 -0.114165,-0.47006 -0.04548,-0.72882 0.770529,-1.07665 0.227766,-0.0885 0.476002,-0.18876 0.247578,-0.11084 0.464121,-0.20922 0.216544,-0.0984 0.380277,-0.1934 0.174293,-0.0957 0.254184,-0.17492 l -0.01252,-0.20069 q -0.01714,-0.27464 -0.09633,-0.52419 -0.07919,-0.24955 -0.207908,-0.44299 -0.11815,-0.1941 -0.294406,-0.29975 -0.165692,-0.10631 -0.366385,-0.0938 -0.08451,0.005 -0.186836,0.0647 -0.09243,0.0481 -0.172977,0.11683 -0.08055,0.0686 -0.149873,0.14721 -0.06998,0.068 -0.09904,0.11221 -0.02971,0.0336 -0.0251,0.1076 0.0046,0.074 0.01055,0.16902 0.01583,0.0839 0.03233,0.17824 0.01649,0.0943 0.01055,0.16901 0.01122,0.01 0.01188,0.0205 0.01186,0.19013 -0.116884,0.33602 -0.129408,0.13532 -0.308975,0.14653 -0.19013,0.0119 -0.335356,-0.10632 -0.135322,-0.12942 -0.147186,-0.31955 -0.01516,-0.24294 0.176966,-0.39278 0.03037,-0.0231 0.06008,-0.0567 0.04027,-0.0343 0.09111,-0.0693 0.101013,-0.0806 0.252865,-0.19605 0.162413,-0.11617 0.345952,-0.23367 0.194103,-0.11815 0.400085,-0.21583 0.205982,-0.0977 0.424507,-0.16434 0.232381,-0.0145 0.458814,0.0456 0.225774,0.0495 0.41391,0.17565 0.289132,0.21524 0.42246,0.48263 0.143889,0.26671 0.168935,0.6681 l 0.123251,1.97524 q 0.02175,0.34857 0.135946,0.4793 0.1241,0.1195 0.261416,0.11093 z m -1.278738,-0.10047 q 0.04163,-0.35253 0.0892,-0.77965 0.05748,-0.43835 0.09845,-0.80143 -0.08253,0.0369 -0.217864,0.0772 -0.135342,0.0402 -0.28058,0.0918 -0.135343,0.0402 -0.270679,0.0805 -0.124773,0.0397 -0.218524,0.0666 -0.301706,0.0931 -0.493832,0.24288 -0.182221,0.13862 -0.21724,0.42711 -0.01917,0.20267 0.03297,0.35847 0.05213,0.15581 0.14389,0.26673 0.0911,0.10035 0.211897,0.16705 0.130708,0.0555 0.24822,0.0694 0.203327,0.0297 0.452879,-0.0495 0.249552,-0.0792 0.421211,-0.21715 z"
           style="font-style:normal;font-variant:normal;font-weight:normal;font-stretch:normal;font-size:medium;line-height:1.25;font-family:'Asmath Free';-inkscape-font-specification:'Asmath Free';letter-spacing:-0.5291667px;word-spacing:0px;fill:#f9f9f9;fill-opacity:1;stroke:none;stroke-width:0.26458332"
           id="path975"
           inkscape:connector-curvature="0" />
        <path
           inkscape:connector-curvature="0"
           id="path977"
           d="m 45.918696,131.95212 0.0021,0.0537 0.103351,-0.006 c -0.045,-0.0191 -0.06401,-0.0296 -0.105421,-0.0475 z"
           style="font-style:normal;font-variant:normal;font-weight:normal;font-stretch:normal;font-size:medium;line-height:1.25;font-family:'Asmath Free';-inkscape-font-specification:'Asmath Free';letter-spacing:-0.5291667px;word-spacing:0px;fill:#000000;fill-opacity:1;stroke:none;stroke-width:0.26458332" />
        <path
           inkscape:connector-curvature="0"
           id="path979"
           d="m 44.027604,126.86953 -1.128096,-2.06861 -1.647962,0.10284 c 0.20552,0.12149 0.363413,0.218 0.473874,0.28887 0.10342,0.0713 0.182628,0.1475 0.237193,0.22893 0.04753,0.0819 0.07851,0.18252 0.09302,0.30178 0.007,0.11268 0.01334,0.268 0.0186,0.46561 l 0.219625,4.37596 c 0.01185,0.30323 0.01594,0.53963 0.0124,0.70952 -0.01058,0.17032 -0.04398,0.31055 -0.100769,0.42013 -0.06383,0.11002 -0.163719,0.20831 -0.299723,0.29455 -0.136003,0.0862 -0.330348,0.19734 -0.583427,0.33332 l 2.927988,-0.18294 -0.0021,-0.0537 c -0.18575,-0.0804 -0.359478,-0.15691 -0.472836,-0.21342 -0.138631,-0.0691 -0.239382,-0.15472 -0.302308,-0.25683 -0.06997,-0.10168 -0.113673,-0.2371 -0.13126,-0.40567 -0.01759,-0.16856 -0.03588,-0.40413 -0.05478,-0.70693 l -0.300758,-4.64674 c 0.224856,0.43133 0.468445,0.87924 0.730705,1.34358 0.117089,0.21037 0.233889,0.41745 0.350883,0.62632 z"
           style="font-style:normal;font-variant:normal;font-weight:normal;font-stretch:normal;font-size:medium;line-height:1.25;font-family:'Asmath Free';-inkscape-font-specification:'Asmath Free';letter-spacing:-0.5291667px;word-spacing:0px;fill:#f9f9f9;fill-opacity:1;stroke:none;stroke-width:0.26458332" />
        <path
           inkscape:connector-curvature="0"
           id="path981"
           d="m 44.027604,126.86953 0.04031,0.95653 c 0.137583,0.24563 0.275442,0.49282 0.412895,0.73639 0.2539,0.44366 0.495917,0.86644 0.726054,1.26917 0.222658,0.39612 0.413877,0.74159 0.573609,1.0356 0.03917,0.0611 0.02901,0.12867 -0.02997,0.20309 -0.05942,0.0674 -0.129334,0.13169 -0.210323,0.19327 -0.09419,0.0766 -0.20665,0.14718 -0.336931,0.21187 l 0.866098,-0.0538 0.03204,-0.002 c 0.169006,-0.0105 0.283414,-0.0954 0.344165,-0.25477 0.115782,-0.29706 0.266838,-0.66017 0.45217,-1.08882 0.17829,-0.42821 0.371814,-0.88907 0.581359,-1.38286 0.202062,-0.50039 0.407085,-1.0151 0.614434,-1.54409 0.207346,-0.52899 0.398237,-1.03907 0.572574,-1.53066 0.111246,0.98983 0.200562,1.80422 0.268719,2.44326 0.06067,0.63246 0.109905,1.13455 0.147277,1.50689 0.03737,0.37234 0.06458,0.64328 0.08216,0.81184 0.01011,0.16196 0.01708,0.26749 0.02015,0.31677 0.01011,0.16197 0.01096,0.28895 0.0026,0.38138 -0.0084,0.0924 -0.0423,0.17574 -0.101285,0.25011 -0.06603,0.0748 -0.166822,0.1556 -0.302824,0.24184 -0.136445,0.0792 -0.334676,0.18709 -0.594796,0.3235 l 2.693376,-0.16847 c -0.240731,-0.11929 -0.427035,-0.21363 -0.558623,-0.28318 -0.131587,-0.0695 -0.23092,-0.13767 -0.29869,-0.20413 -0.06777,-0.0665 -0.115195,-0.14109 -0.141592,-0.22427 -0.03388,-0.0898 -0.06585,-0.21124 -0.09664,-0.36484 -0.01231,-0.0841 -0.02489,-0.16812 -0.03721,-0.25218 -0.0198,-0.0907 -0.0374,-0.20634 -0.05323,-0.34675 -0.02331,-0.147 -0.04878,-0.32932 -0.07648,-0.54673 -0.02815,-0.22447 -0.0638,-0.50842 -0.106453,-0.85215 -0.05013,-0.35034 -0.10818,-0.7712 -0.174149,-1.26194 -0.06641,-0.49777 -0.145875,-1.09012 -0.238228,-1.77715 -0.02332,-0.147 -0.03381,-0.26284 -0.03204,-0.34778 -0.0057,-0.0915 0.02439,-0.17478 0.09043,-0.2496 0.05855,-0.0814 0.16248,-0.16886 0.312126,-0.26303 0.142166,-0.10077 0.349737,-0.23401 0.622184,-0.39946 l -1.985928,0.12406 -2.154391,5.92367 z"
           style="font-style:normal;font-variant:normal;font-weight:normal;font-stretch:normal;font-size:medium;line-height:1.25;font-family:'Asmath Free';-inkscape-font-specification:'Asmath Free';letter-spacing:-0.5291667px;word-spacing:0px;fill:#f9f9f9;fill-opacity:1;stroke:none;stroke-width:0.26458332" />
      </g>
      <g
         id="g1498">
        <path
           inkscape:connector-curvature="0"
           id="path983"
           d="m 106.77345,134.97282 -0.0388,-0.91415 -1.66605,3.56774 -2.51871,-5.77846 h -1.98955 c 0.28222,0.14817 0.49728,0.26795 0.64544,0.35967 0.15522,0.0847 0.26465,0.16578 0.32815,0.24339 0.0705,0.0705 0.10542,0.15167 0.10542,0.2434 0.007,0.0847 0.004,0.20116 -0.0103,0.34933 -0.0494,0.69144 -0.0918,1.28758 -0.12713,1.78852 -0.0353,0.49389 -0.0669,0.91743 -0.0951,1.27021 -0.0212,0.34572 -0.0386,0.63153 -0.0527,0.85731 -0.0141,0.21872 -0.0283,0.40219 -0.0424,0.55036 -0.007,0.14111 -0.0179,0.25709 -0.032,0.34881 -0.007,0.0847 -0.0141,0.16958 -0.0212,0.25425 -0.0212,0.15522 -0.0457,0.27879 -0.0739,0.37052 -0.0212,0.0847 -0.0636,0.16199 -0.12712,0.23254 -0.0635,0.0706 -0.15877,0.1446 -0.28577,0.22221 -0.127,0.0776 -0.30667,0.18376 -0.5395,0.31781 h 2.69854 c -0.26811,-0.11994 -0.47281,-0.21522 -0.61392,-0.28577 -0.14111,-0.0776 -0.24673,-0.15165 -0.31729,-0.22221 -0.0635,-0.0705 -0.10216,-0.15167 -0.11627,-0.24339 -0.0141,-0.0917 -0.0212,-0.21909 -0.0212,-0.38138 v -0.31729 c 0.007,-0.16932 0.0174,-0.44099 0.0315,-0.81493 0.0141,-0.37395 0.0315,-0.87861 0.0527,-1.51361 0.0282,-0.64205 0.0674,-1.46031 0.11679,-2.45514 0.20461,0.47978 0.42673,0.97736 0.66662,1.49241 0.23989,0.51505 0.47617,1.01592 0.709,1.50275 0.23989,0.47978 0.46202,0.92783 0.66663,1.34411 0.21167,0.41627 0.38478,0.76905 0.51883,1.05833 0.0706,0.15522 0.19034,0.23254 0.35967,0.23254 h 0.032 0.86765 c -0.13406,-0.0564 -0.25056,-0.11961 -0.34933,-0.19017 -0.0847,-0.0564 -0.15871,-0.1163 -0.22221,-0.17983 -0.0635,-0.0706 -0.0777,-0.13756 -0.0424,-0.20102 0.14111,-0.30339 0.31042,-0.65997 0.50797,-1.06919 0.20461,-0.41628 0.41966,-0.85345 0.64544,-1.31206 0.11671,-0.24072 0.23366,-0.485 0.35037,-0.72761 z"
           style="font-style:normal;font-variant:normal;font-weight:normal;font-stretch:normal;font-size:medium;line-height:1.25;font-family:'Asmath Free';-inkscape-font-specification:'Asmath Free';letter-spacing:-0.5291667px;word-spacing:0px;fill:#e6e6e6;fill-opacity:1;stroke:none;stroke-width:0.26458332"
           inkscape:export-filename="D:\Felipe\Projetos\xram-memory\design\logo-xram-memory\export\variante03.png"
           inkscape:export-xdpi="1115.2399"
           inkscape:export-ydpi="1115.2399" />
        <path
           inkscape:connector-curvature="0"
           id="path985"
           d="m 106.95431,139.25628 h 2.85564 c -0.26105,-0.11994 -0.46195,-0.21901 -0.60306,-0.29662 -0.14111,-0.0776 -0.24726,-0.16908 -0.31781,-0.27492 -0.0635,-0.10583 -0.10544,-0.24356 -0.12661,-0.41289 -0.0141,-0.16934 -0.025,-0.40562 -0.032,-0.709 l -0.0527,-4.38165 c -0.007,-0.19755 -0.0109,-0.35271 -0.0109,-0.4656 0.007,-0.11994 0.0321,-0.2223 0.0744,-0.30696 0.0494,-0.0847 0.12344,-0.16578 0.22221,-0.2434 0.10583,-0.0776 0.2572,-0.18324 0.45475,-0.31729 h -1.65106 l -1.03249,2.21072 0.0388,0.91415 c 0.10907,-0.2267 0.21805,-0.45171 0.32712,-0.68006 0.23283,-0.47978 0.44788,-0.94198 0.64543,-1.38648 l -0.0103,4.65657 c 0,0.30338 -0.003,0.53966 -0.0103,0.709 -0.007,0.16933 -0.0424,0.30706 -0.10593,0.41289 -0.0564,0.10584 -0.15172,0.19731 -0.28577,0.27492 -0.0916,0.053 -0.24247,0.12979 -0.38344,0.20257 z"
           style="font-style:normal;font-variant:normal;font-weight:normal;font-stretch:normal;font-size:medium;line-height:1.25;font-family:'Asmath Free';-inkscape-font-specification:'Asmath Free';letter-spacing:-0.5291667px;word-spacing:0px;fill:#e6e6e6;fill-opacity:1;stroke:none;stroke-width:0.26458332"
           inkscape:export-filename="D:\Felipe\Projetos\xram-memory\design\logo-xram-memory\export\variante03.png"
           inkscape:export-xdpi="1115.2399"
           inkscape:export-ydpi="1115.2399" />
        <path
           inkscape:connector-curvature="0"
           id="path987"
           d="m 106.95431,139.25628 -0.004,-0.0941 c -0.0654,0.0337 -0.10176,0.056 -0.17777,0.0941 z"
           style="font-style:normal;font-variant:normal;font-weight:normal;font-stretch:normal;font-size:medium;line-height:1.25;font-family:'Asmath Free';-inkscape-font-specification:'Asmath Free';letter-spacing:-0.5291667px;word-spacing:0px;fill:#333333;fill-opacity:1;stroke:none;stroke-width:0.26458332"
           inkscape:export-filename="D:\Felipe\Projetos\xram-memory\design\logo-xram-memory\export\variante03.png"
           inkscape:export-xdpi="1115.2399"
           inkscape:export-ydpi="1115.2399" />
        <path
           d="m 118.79705,139.25618 q 0.254,-0.14817 0.39158,-0.23283 0.14817,-0.0953 0.21167,-0.20109 0.0635,-0.10583 0.0741,-0.254 0.0106,-0.15875 0.0106,-0.43391 v -1.74625 q 0,-0.27517 -0.0423,-0.55033 -0.0423,-0.28575 -0.14816,-0.508 -0.0952,-0.22225 -0.26459,-0.35984 -0.15875,-0.13758 -0.40216,-0.13758 -0.23284,0 -0.508,0.13758 -0.27517,0.13759 -0.48684,0.41275 -0.20108,0.26459 -0.17991,0.59267 0.0106,0.0529 0.0106,0.1905 v 2.032 q 0,0.24341 0.0106,0.39158 0.0106,0.13758 0.0741,0.23283 0.0635,0.0953 0.1905,0.1905 0.13758,0.0952 0.39158,0.24342 h -2.23308 q 0.27516,-0.14817 0.42333,-0.23283 0.15875,-0.0953 0.22225,-0.1905 0.0741,-0.10584 0.0847,-0.254 0.0106,-0.14817 0.0106,-0.40217 v -1.79916 q 0,-0.28575 -0.0317,-0.55034 -0.0212,-0.27516 -0.11642,-0.47625 -0.0847,-0.21166 -0.24341,-0.34925 -0.15875,-0.13758 -0.42334,-0.15875 -0.15875,-0.0106 -0.34925,0.0741 -0.1905,0.0741 -0.37041,0.21166 -0.16934,0.127 -0.30692,0.28575 -0.13758,0.15875 -0.17992,0.30692 v 2.45533 q 0,0.254 0.0106,0.40217 0.0106,0.14816 0.0741,0.254 0.0635,0.0952 0.1905,0.1905 0.13759,0.0847 0.39159,0.23283 h -2.24367 q 0.28575,-0.14817 0.43392,-0.23283 0.14816,-0.0953 0.22225,-0.1905 0.0741,-0.10584 0.0847,-0.254 0.0106,-0.14817 0.0106,-0.40217 v -2.159 q 0,-0.254 -0.0106,-0.39158 -0.0106,-0.14817 -0.0741,-0.24342 -0.0529,-0.10583 -0.17992,-0.20108 -0.127,-0.0952 -0.35983,-0.24342 0.74083,-0.11641 1.44991,-0.41275 v 0.83609 q 0.15875,-0.11642 0.33867,-0.254 0.17992,-0.13759 0.43392,-0.28575 0.1905,-0.127 0.381,-0.1905 0.1905,-0.0741 0.4445,-0.0741 0.37041,0 0.66675,0.22225 0.30691,0.22225 0.46566,0.62442 0.22225,-0.16933 0.42334,-0.30692 0.20108,-0.13758 0.40216,-0.27516 0.17992,-0.11642 0.381,-0.1905 0.21167,-0.0741 0.4445,-0.0741 0.61384,0 0.96309,0.42334 0.34925,0.41275 0.34925,1.17475 v 2.02141 q 0,0.26458 0.0106,0.41275 0.0106,0.14817 0.0741,0.254 0.0635,0.0952 0.1905,0.1905 0.13758,0.0847 0.381,0.22225 z"
           style="font-style:normal;font-variant:normal;font-weight:normal;font-stretch:normal;font-size:medium;line-height:1.25;font-family:'Asmath Free';-inkscape-font-specification:'Asmath Free';letter-spacing:-0.5291667px;word-spacing:0px;fill:#e6e6e6;fill-opacity:1;stroke:none;stroke-width:0.26458332"
           id="path990"
           inkscape:connector-curvature="0"
           inkscape:export-filename="D:\Felipe\Projetos\xram-memory\design\logo-xram-memory\export\variante03.png"
           inkscape:export-xdpi="1115.2399"
           inkscape:export-ydpi="1115.2399" />
        <path
           d="m 123.03353,134.51485 q 0.47625,0 0.889,0.17992 0.41275,0.16933 0.70908,0.47625 0.29633,0.30691 0.46567,0.73025 0.16933,0.41275 0.16933,0.91016 0,0.62442 -0.21167,1.09008 -0.20108,0.45509 -0.52916,0.762 -0.32809,0.29634 -0.71967,0.4445 -0.39158,0.14817 -0.77258,0.14817 -0.52917,0 -0.9525,-0.1905 -0.42334,-0.20108 -0.71967,-0.51858 -0.29633,-0.3175 -0.45508,-0.73025 -0.14817,-0.41275 -0.14817,-0.84667 0,-0.41275 0.0952,-0.74083 0.0952,-0.33867 0.26458,-0.60325 0.16934,-0.27517 0.39159,-0.47625 0.22225,-0.20108 0.46566,-0.33867 0,-0.0106 0,-0.0106 0.0106,0 0.0106,-0.0106 0.11642,-0.0741 0.0529,-0.127 -0.0635,-0.0529 -0.1905,-0.0847 -0.14816,-0.0423 -0.381,-0.0635 z m 1.30175,2.97392 q 0.14816,-0.34925 0.16933,-0.73025 0.0317,-0.381 -0.0635,-0.73025 -0.0847,-0.34925 -0.28575,-0.61384 -0.1905,-0.27516 -0.47625,-0.39158 -0.20108,-0.0847 -0.45508,-0.0847 -0.24342,0 -0.49742,0.127 -0.254,0.11642 -0.49742,0.35984 -0.24341,0.24341 -0.41275,0.65616 -0.1905,0.45509 -0.24341,0.91017 -0.0423,0.4445 0.0317,0.83608 0.0741,0.381 0.254,0.66675 0.17991,0.28575 0.4445,0.39158 0.20108,0.0847 0.46566,0.0635 0.26459,-0.0317 0.53975,-0.1905 0.27517,-0.16933 0.53975,-0.47625 0.27517,-0.30691 0.48684,-0.79374 z"
           style="font-style:normal;font-variant:normal;font-weight:normal;font-stretch:normal;font-size:medium;line-height:1.25;font-family:'Asmath Free';-inkscape-font-specification:'Asmath Free';letter-spacing:-0.5291667px;word-spacing:0px;fill:#e6e6e6;fill-opacity:1;stroke:none;stroke-width:0.26458332"
           id="path992"
           inkscape:connector-curvature="0"
           inkscape:export-filename="D:\Felipe\Projetos\xram-memory\design\logo-xram-memory\export\variante03.png"
           inkscape:export-xdpi="1115.2399"
           inkscape:export-ydpi="1115.2399" />
        <path
           d="m 128.09219,134.53602 q 0.15875,0 0.30692,0.0635 0.15875,0.0529 0.28575,0.15875 0.127,0.0952 0.20108,0.24341 0.0741,0.13759 0.0741,0.30692 0,0.27517 -0.20108,0.47625 -0.1905,0.1905 -0.46566,0.1905 -0.21167,0 -0.381,-0.11642 -0.15875,-0.127 -0.28575,-0.27516 -0.127,-0.15875 -0.23284,-0.27517 -0.0952,-0.127 -0.17991,-0.127 -0.0741,0 -0.17992,0.13758 -0.0952,0.127 -0.1905,0.30692 -0.0847,0.16933 -0.14817,0.33867 -0.0635,0.15875 -0.0635,0.23283 v 1.95791 q 0,0.29634 0.0317,0.46567 0.0318,0.15875 0.127,0.26458 0.0952,0.0952 0.26459,0.16934 0.16933,0.0741 0.43391,0.20108 h -2.40241 q 0.24341,-0.13758 0.381,-0.21167 0.14816,-0.0847 0.22225,-0.1905 0.0741,-0.10583 0.0952,-0.254 0.0212,-0.15875 0.0212,-0.43391 v -2.16958 q 0,-0.26459 -0.0212,-0.41275 -0.0106,-0.14817 -0.0741,-0.24342 -0.0635,-0.10583 -0.1905,-0.17992 -0.127,-0.0847 -0.35983,-0.21166 0.381,-0.0635 0.75141,-0.16934 0.37042,-0.10583 0.71967,-0.26458 v 1.15358 q 0.11642,-0.17991 0.26458,-0.381 0.15875,-0.20108 0.33867,-0.35983 0.1905,-0.16933 0.40217,-0.27517 0.22225,-0.11641 0.45508,-0.11641 z"
           style="font-style:normal;font-variant:normal;font-weight:normal;font-stretch:normal;font-size:medium;line-height:1.25;font-family:'Asmath Free';-inkscape-font-specification:'Asmath Free';letter-spacing:-0.5291667px;word-spacing:0px;fill:#e6e6e6;fill-opacity:1;stroke:none;stroke-width:0.26458332"
           id="path994"
           inkscape:connector-curvature="0"
           inkscape:export-filename="D:\Felipe\Projetos\xram-memory\design\logo-xram-memory\export\variante03.png"
           inkscape:export-xdpi="1115.2399"
           inkscape:export-ydpi="1115.2399" />
        <path
           d="m 133.92675,134.51485 q -0.43391,0.29633 -0.75141,0.762 -0.30692,0.46567 -0.53975,1.00542 -0.23284,0.52916 -0.42334,1.09008 -0.17991,0.55033 -0.37041,1.02658 l 0.0106,-0.0106 q -0.0847,0.21166 -0.22225,0.51858 -0.127,0.30692 -0.30692,0.64558 -0.16933,0.33867 -0.381,0.66675 -0.20108,0.33867 -0.43391,0.60325 -0.22225,0.26459 -0.48684,0.42334 -0.254,0.16933 -0.51858,0.16933 -0.27517,0 -0.47625,-0.21167 -0.1905,-0.21166 -0.1905,-0.47625 0,-0.27516 0.20108,-0.47625 0.21167,-0.1905 0.48684,-0.1905 0.23283,0 0.45508,0.0423 0.22225,0.0423 0.46567,0.0423 0.37041,0 0.52916,-0.20108 0.15875,-0.1905 0.15875,-0.55034 0,-0.29633 -0.16933,-0.80433 -0.15875,-0.51858 -0.39158,-1.06891 -0.22225,-0.56092 -0.45509,-1.0795 -0.23283,-0.52917 -0.35983,-0.85725 -0.0952,-0.24342 -0.16933,-0.381 -0.0741,-0.13759 -0.16934,-0.23284 -0.0847,-0.10583 -0.22225,-0.20108 -0.127,-0.0952 -0.33866,-0.254 h 2.12725 q -0.0529,0.0423 -0.13759,0.10583 -0.0741,0.0635 -0.15875,0.13759 -0.0741,0.0741 -0.127,0.15875 -0.0529,0.0847 -0.0529,0.15875 0,0.0635 0.0635,0.27516 0.0741,0.20109 0.17992,0.49742 0.11642,0.28575 0.24342,0.62442 0.13758,0.32808 0.254,0.635 0.127,0.29633 0.22225,0.52916 0.0952,0.23283 0.13758,0.32808 0.0423,-0.0952 0.127,-0.31749 0.0952,-0.23284 0.20108,-0.52917 0.11642,-0.29633 0.23284,-0.61383 0.11641,-0.32809 0.21166,-0.60325 0.10584,-0.28575 0.16934,-0.49742 0.0635,-0.21167 0.0635,-0.27517 0,-0.0847 -0.0741,-0.16933 -0.0741,-0.0952 -0.17992,-0.17992 -0.10583,-0.0847 -0.21167,-0.14816 -0.0952,-0.0741 -0.15875,-0.11642 z"
           style="font-style:normal;font-variant:normal;font-weight:normal;font-stretch:normal;font-size:medium;line-height:1.25;font-family:'Asmath Free';-inkscape-font-specification:'Asmath Free';letter-spacing:-0.5291667px;word-spacing:0px;fill:#e6e6e6;fill-opacity:1;stroke:none;stroke-width:0.26458332"
           id="path996"
           inkscape:connector-curvature="0"
           inkscape:export-filename="D:\Felipe\Projetos\xram-memory\design\logo-xram-memory\export\variante03.png"
           inkscape:export-xdpi="1115.2399"
           inkscape:export-ydpi="1115.2399" />
        <path
           d="m 112.99424,138.26135 q -0.24341,0.30691 -0.49741,0.508 -0.24342,0.1905 -0.47625,0.30691 -0.22225,0.10584 -0.41275,0.14817 -0.17992,0.0317 -0.30692,0.0317 -0.46567,0 -0.84667,-0.17992 -0.37041,-0.17991 -0.635,-0.47625 -0.254,-0.30691 -0.39158,-0.6985 -0.13758,-0.40216 -0.13758,-0.84666 0,-0.52917 0.16933,-0.98425 0.17992,-0.46567 0.49742,-0.80433 0.3175,-0.37042 0.71966,-0.56092 0.40217,-0.1905 0.80434,-0.1905 0.32808,0 0.61383,0.13758 0.29633,0.127 0.49742,0.34925 0.21166,0.22225 0.32808,0.508 0.127,0.28575 0.127,0.59267 -0.0106,0.14817 -0.0529,0.23283 -0.0318,0.0741 -0.14816,0.10584 -0.0847,0.0212 -0.34925,0.0423 -0.26459,0.0212 -0.64559,0.0529 -0.381,0.0212 -0.83608,0.0423 -0.45508,0.0212 -0.91017,0.0317 -0.0106,0.51858 0.127,0.889 0.13759,0.35983 0.35984,0.59266 0.22225,0.23284 0.49741,0.34925 0.27517,0.10584 0.55034,0.10584 0.3175,0 0.635,-0.0635 0.3175,-0.0635 0.71966,-0.22225 z m -1.83091,-3.6195 q -0.17992,0.0212 -0.33867,0.16933 -0.15875,0.13759 -0.28575,0.37042 -0.11642,0.22225 -0.20108,0.51858 -0.0741,0.28575 -0.0847,0.60325 0.43391,-0.0529 0.85725,-0.11641 0.43391,-0.0635 0.87841,-0.14817 0.13759,-0.0212 0.17992,-0.0741 0.0529,-0.0529 0.0317,-0.16934 -0.0212,-0.20108 -0.0847,-0.42333 -0.0529,-0.22225 -0.16933,-0.39158 -0.10583,-0.17992 -0.29633,-0.27517 -0.1905,-0.10583 -0.48684,-0.0635 z"
           style="font-style:normal;font-variant:normal;font-weight:normal;font-stretch:normal;font-size:medium;line-height:1.25;font-family:'Asmath Free';-inkscape-font-specification:'Asmath Free';letter-spacing:-0.5291667px;word-spacing:0px;fill:#e6e6e6;fill-opacity:1;stroke:none;stroke-width:0.26458332"
           id="path1000"
           inkscape:connector-curvature="0"
           inkscape:export-filename="D:\Felipe\Projetos\xram-memory\design\logo-xram-memory\export\variante03.png"
           inkscape:export-xdpi="1115.2399"
           inkscape:export-ydpi="1115.2399" />
      </g>
      <path
         inkscape:export-ydpi="1115.2399"
         inkscape:export-xdpi="1115.2399"
         inkscape:export-filename="D:\Felipe\Projetos\xram-memory\design\logo-xram-memory\export\variante03.png"
         inkscape:connector-curvature="0"
         id="path1004"
         d="m 99.424288,129.16581 0.433865,9.21151 0.208237,4.42116"
         style="fill:none;fill-opacity:1;stroke:#e6e6e6;stroke-width:0.63500005;stroke-linecap:butt;stroke-linejoin:miter;stroke-miterlimit:4;stroke-dasharray:none;stroke-opacity:1"
         sodipodi:nodetypes="ccc" />
    </g>
  </g>
</svg>
