<svg xmlns="http://www.w3.org/2000/svg" width="212.36" height="51.638" viewBox="0 0 56.187 13.663"><g font-weight="400" font-family="Asmath Free" letter-spacing="-.529" word-spacing="0"><path d="M2.924 11.37q.201-.172.302-.263.11-.103.138-.168.037-.077.002-.138l-.106-.174-.882-1.207q-.332.615-.626 1.185-.065.142-.091.228-.027.087.01.17.047.07.16.17.121.087.354.242l-2.028.127q.295-.188.458-.294.163-.116.273-.218.11-.102.199-.214.088-.122.223-.332.202-.33.394-.66.202-.332.422-.716l-1.01-1.39q-.138-.182-.22-.294-.08-.112-.192-.19-.1-.089-.265-.174Q.285 6.974 0 6.822l2.155-.134q-.17.18-.258.281-.09.101-.117.177-.027.066.009.137.036.062.117.173l.706.943q.132-.253.276-.505.143-.253.274-.537.056-.11.073-.174.028-.076-.008-.138-.036-.072-.148-.16-.112-.089-.312-.235l1.955-.122q-.298.167-.46.272-.164.096-.275.198-.11.092-.208.225-.088.122-.233.343-.107.155-.28.442l-.413.694 1.135 1.53q.161.213.264.333.103.121.216.22.122.088.287.184.175.095.482.256z" style="line-height:1.25;-inkscape-font-specification:'Asmath Free'" fill="#ff8181"/><path d="M7.74 6.36q.16-.01.311.045.162.043.295.14.133.088.216.231.083.133.093.302.017.274-.17.488-.18.202-.454.219-.211.013-.387-.093-.167-.117-.303-.257-.136-.15-.25-.26-.102-.12-.187-.115-.074.005-.17.148-.088.133-.172.318-.074.175-.126.348-.054.162-.05.236l.123 1.954q.018.296.06.463.042.156.144.256.1.09.274.153.174.063.446.173l-2.398.15q.234-.153.367-.235.143-.094.21-.204.067-.11.08-.26.01-.16-.007-.434L5.55 7.961q-.016-.264-.047-.41-.02-.148-.089-.24-.07-.1-.201-.167-.132-.077-.372-.189.376-.087.74-.216.362-.128.7-.309l.073 1.152q.105-.187.24-.397.146-.21.316-.38.18-.181.384-.3.214-.13.447-.144z" style="line-height:1.25;-inkscape-font-specification:'Asmath Free'" fill="#ff8181"/><path d="M12.326 10.115q.095-.006.188-.044t.174-.096q-.019.203-.103.378-.076.153-.216.29-.14.135-.391.183-.115.028-.267-.026-.142-.065-.232-.145-.1-.089-.16-.191-.06-.113-.11-.248-.153.116-.314.243-.152.126-.315.231-.152.105-.296.178-.144.072-.26.08-.275.017-.514-.074-.228-.092-.408-.25-.18-.17-.289-.386-.099-.227-.114-.47-.046-.728.77-1.076.228-.089.476-.189.248-.11.465-.21.216-.098.38-.193.174-.095.254-.175l-.012-.2q-.018-.275-.097-.524-.079-.25-.208-.443-.118-.195-.294-.3-.166-.106-.367-.094-.084.005-.186.065-.093.048-.173.117-.08.068-.15.147-.07.068-.1.112-.029.034-.024.108l.01.169.033.178q.016.094.01.169.011.01.012.02.012.19-.117.336-.13.136-.309.147-.19.012-.335-.106-.136-.13-.147-.32-.016-.243.177-.393.03-.023.06-.056.04-.035.09-.07.102-.08.254-.196.162-.116.346-.233.194-.119.4-.216.206-.098.424-.165.233-.014.459.046.226.05.414.176.289.215.422.482.144.267.17.668l.123 1.976q.021.348.135.479.125.12.262.11zm-1.279-.1q.042-.353.09-.78.057-.439.098-.802-.083.037-.218.077t-.28.092l-.271.08q-.125.04-.219.067-.302.093-.494.243-.182.139-.217.427-.02.203.033.359.052.155.144.266.091.1.212.167.13.056.248.07.203.03.453-.05.25-.079.421-.217z" style="line-height:1.25;-inkscape-font-specification:'Asmath Free'" fill="#ff8181"/><path d="M16.976 10.43l.002.054.103-.006c-.045-.019-.064-.03-.105-.047z" style="line-height:1.25;-inkscape-font-specification:'Asmath Free'"/><path d="M15.085 5.348l-1.128-2.069-1.648.103c.205.122.363.218.474.289a.883.883 0 0 1 .237.229.786.786 0 0 1 .093.302c.007.112.013.268.018.465l.22 4.376c.012.303.016.54.012.71-.01.17-.044.31-.1.42a.88.88 0 0 1-.3.294c-.136.087-.33.198-.583.334l2.927-.183-.002-.054a11.07 11.07 0 0 1-.472-.213.718.718 0 0 1-.303-.257.868.868 0 0 1-.131-.406 18.117 18.117 0 0 1-.055-.707l-.3-4.646c.224.43.468.879.73 1.343l.351.626z" style="line-height:1.25;-inkscape-font-specification:'Asmath Free'" fill="#ff8181"/><path d="M15.085 5.348l.04.956.413.737.726 1.269c.223.396.414.742.574 1.036.039.06.029.128-.03.203a1.804 1.804 0 0 1-.547.405l.866-.054.032-.002a.367.367 0 0 0 .344-.255c.116-.297.267-.66.452-1.089.178-.428.372-.889.581-1.382.202-.5.407-1.016.615-1.545.207-.529.398-1.039.572-1.53.112.99.2 1.804.269 2.443a355.258 355.258 0 0 0 .23 2.319l.02.317c.01.162.01.288.002.38a.462.462 0 0 1-.101.251 1.428 1.428 0 0 1-.303.242c-.136.08-.335.187-.595.323l2.694-.168c-.241-.12-.427-.214-.559-.283a1.292 1.292 0 0 1-.299-.204.542.542 0 0 1-.141-.225 2.425 2.425 0 0 1-.097-.365l-.037-.252a3.541 3.541 0 0 1-.053-.346c-.024-.147-.05-.33-.077-.547l-.106-.852c-.05-.35-.108-.772-.174-1.262l-.239-1.777a2.072 2.072 0 0 1-.032-.348.335.335 0 0 1 .09-.25c.06-.081.163-.169.313-.263.142-.1.35-.234.622-.4l-1.986.125-2.154 5.923z" style="line-height:1.25;-inkscape-font-specification:'Asmath Free'" fill="#ff8181"/></g><g font-weight="400" font-family="Asmath Free" letter-spacing="-.529" word-spacing="0"><path d="M29.034 5.822l-.04-.914-1.665 3.568-2.519-5.779h-1.99c.283.148.498.268.646.36.155.084.265.166.328.243.07.07.105.152.105.244a2.06 2.06 0 0 1-.01.349l-.127 1.788c-.035.494-.067.918-.095 1.27l-.053.858c-.014.219-.028.402-.042.55a3.495 3.495 0 0 1-.032.35l-.021.253a2.435 2.435 0 0 1-.074.37.541.541 0 0 1-.127.233c-.064.071-.16.145-.286.223-.127.077-.307.183-.54.317h2.699c-.268-.12-.473-.215-.614-.285a1.427 1.427 0 0 1-.317-.223.462.462 0 0 1-.117-.243 2.655 2.655 0 0 1-.02-.381v-.318a264.426 264.426 0 0 0 .083-2.328c.029-.642.068-1.46.117-2.455.205.48.427.977.667 1.492.24.515.476 1.016.709 1.503.24.48.462.928.666 1.344.212.416.385.769.52 1.058.07.156.19.233.359.233h.9a1.8 1.8 0 0 1-.35-.19 1.445 1.445 0 0 1-.222-.18c-.063-.07-.078-.138-.042-.201.14-.304.31-.66.508-1.07l.645-1.311c.117-.241.234-.485.35-.728z" style="line-height:1.25;-inkscape-font-specification:'Asmath Free'" fill="#999"/><path d="M29.214 10.105h2.856a9.872 9.872 0 0 1-.603-.296.881.881 0 0 1-.318-.275 1.056 1.056 0 0 1-.126-.413 12.53 12.53 0 0 1-.032-.709l-.053-4.382c-.007-.197-.011-.352-.011-.465a.785.785 0 0 1 .074-.307.882.882 0 0 1 .223-.244c.105-.077.257-.183.454-.317h-1.65l-1.033 2.21.039.915.327-.68c.233-.48.448-.942.645-1.387l-.01 4.657c0 .303-.003.54-.01.709a.866.866 0 0 1-.106.413.717.717 0 0 1-.286.275c-.092.053-.243.13-.384.202z" style="line-height:1.25;-inkscape-font-specification:'Asmath Free'" fill="#999"/><path d="M29.214 10.105l-.004-.094c-.065.034-.101.056-.177.094z" style="line-height:1.25;-inkscape-font-specification:'Asmath Free'" fill="#333"/><path d="M41.057 10.105q.254-.148.392-.233.148-.095.211-.2.064-.106.074-.255.011-.158.011-.434V7.237q0-.275-.042-.55-.043-.286-.148-.508-.096-.222-.265-.36-.159-.138-.402-.138-.233 0-.508.138t-.487.413q-.201.264-.18.592.01.053.01.191v2.032q0 .243.011.392.01.137.074.232.064.096.19.19.139.096.393.244h-2.234q.276-.148.424-.233.159-.095.222-.19.074-.106.085-.254.01-.148.01-.402v-1.8q0-.285-.031-.55-.022-.275-.117-.476-.085-.212-.243-.35-.159-.137-.424-.158-.158-.01-.349.074-.19.074-.37.212-.17.127-.307.286-.138.158-.18.306v2.456q0 .254.01.402.011.148.075.254.063.095.19.19.138.085.392.233H35.3q.286-.148.434-.233.148-.095.222-.19.074-.106.085-.254.01-.148.01-.402v-2.16q0-.253-.01-.39-.01-.149-.074-.244-.053-.106-.18-.201-.127-.095-.36-.244.74-.116 1.45-.412v.836q.159-.117.339-.254.18-.138.434-.286.19-.127.38-.19.191-.075.445-.075.37 0 .667.223.307.222.465.624.223-.17.424-.307l.402-.275q.18-.117.381-.19.212-.075.444-.075.614 0 .964.424.349.412.349 1.174v2.022q0 .264.01.413.011.148.075.254.063.095.19.19.138.085.381.222zM45.294 5.364q.476 0 .889.18.412.17.709.476.296.307.465.73.17.413.17.91 0 .625-.212 1.09-.201.456-.53.763-.327.296-.719.444-.391.148-.772.148-.53 0-.953-.19-.423-.201-.72-.519-.296-.317-.455-.73-.148-.413-.148-.847 0-.412.095-.74.096-.34.265-.604.17-.275.392-.476.222-.201.465-.339v-.01q.01 0 .01-.01.117-.075.054-.128-.064-.053-.19-.085-.149-.042-.382-.063zm1.301 2.974q.149-.35.17-.73.031-.381-.064-.73-.085-.35-.286-.614-.19-.276-.476-.392-.2-.085-.455-.085-.243 0-.497.127-.254.117-.498.36-.243.244-.412.656-.191.455-.244.91-.042.445.032.837.074.38.254.666.18.286.444.392.201.085.466.063.265-.031.54-.19.275-.17.54-.476.275-.307.486-.794z" style="line-height:1.25;-inkscape-font-specification:'Asmath Free'" fill="#999"/><path d="M50.352 5.385q.159 0 .307.064.159.053.286.158.127.096.201.244.074.137.074.307 0 .275-.201.476-.19.19-.466.19-.211 0-.38-.116-.16-.127-.286-.275-.127-.159-.233-.275-.095-.127-.18-.127-.074 0-.18.137-.095.127-.19.307-.085.17-.149.339-.063.159-.063.233v1.958q0 .296.031.465.032.16.127.265.096.095.265.17.17.073.434.2h-2.402q.243-.137.38-.211.149-.085.223-.19.074-.107.095-.255.021-.159.021-.434v-2.17q0-.264-.021-.412-.01-.148-.074-.244-.064-.105-.19-.18-.128-.084-.36-.211.38-.064.751-.17.37-.105.72-.264v1.154q.116-.18.264-.381.159-.202.339-.36.19-.17.402-.275.222-.117.455-.117z" style="line-height:1.25;-inkscape-font-specification:'Asmath Free'" fill="#999"/><path d="M56.187 5.364q-.434.296-.752.762-.306.466-.54 1.005-.232.53-.423 1.09-.18.55-.37 1.027l.01-.01q-.084.211-.222.518-.127.307-.307.646-.169.338-.38.666-.202.339-.435.604-.222.264-.486.423-.254.17-.519.17-.275 0-.476-.212-.19-.212-.19-.477 0-.275.2-.476.212-.19.487-.19.233 0 .455.042.223.042.466.042.37 0 .53-.2.158-.191.158-.551 0-.297-.17-.805-.158-.518-.391-1.068-.222-.561-.455-1.08-.233-.53-.36-.857-.095-.244-.17-.381-.073-.138-.169-.233-.084-.106-.222-.201l-.339-.254h2.128q-.053.042-.138.106l-.159.137q-.074.074-.127.16-.053.084-.053.158 0 .063.064.275.074.201.18.497.116.286.243.625.138.328.254.635.127.296.223.529.095.233.137.328.042-.095.127-.317.095-.233.201-.53.117-.296.233-.613l.212-.604q.106-.285.169-.497.064-.212.064-.275 0-.085-.075-.17-.074-.095-.18-.18-.105-.084-.211-.148-.095-.074-.159-.116zM35.254 9.11q-.243.307-.497.508-.244.191-.476.307-.223.106-.413.149-.18.031-.307.031-.466 0-.847-.18-.37-.18-.635-.476-.254-.307-.391-.698-.138-.403-.138-.847 0-.53.17-.984.18-.466.497-.805.317-.37.72-.56.402-.191.804-.191.328 0 .614.138.296.127.497.349.212.222.328.508.127.286.127.592-.01.149-.053.233-.031.074-.148.106-.085.021-.35.042l-.645.053q-.38.022-.836.043-.455.02-.91.031-.01.519.127.89.138.36.36.592.222.233.497.35.276.105.55.105.318 0 .636-.063.317-.064.72-.223zm-1.83-3.619q-.18.021-.34.17-.158.137-.285.37-.116.222-.201.518-.074.286-.085.604.434-.053.857-.117.434-.063.879-.148.137-.021.18-.074.053-.053.031-.17-.02-.2-.084-.423-.053-.222-.17-.391-.105-.18-.296-.276-.19-.105-.487-.063z" style="line-height:1.25;-inkscape-font-specification:'Asmath Free'" fill="#999"/></g><path d="M21.684.015l.642 13.633" fill="#333" stroke="#999" stroke-width=".635"/></svg>