<svg width="212.36" height="51.64" viewBox="0 0 56.187 13.663" xmlns="http://www.w3.org/2000/svg"><path d="M2.924 11.369q.201-.172.301-.263.11-.102.138-.167.038-.077.002-.138-.035-.062-.106-.174L2.378 9.42q-.333.615-.626 1.184-.065.142-.092.229-.026.086.01.169.048.071.16.17.122.088.354.243l-2.028.127.46-.294q.161-.116.272-.219.11-.102.198-.213.088-.123.224-.332.202-.331.393-.661.202-.331.422-.716l-1.01-1.39q-.138-.182-.219-.293-.081-.112-.192-.19-.101-.089-.265-.174-.154-.086-.44-.238l2.155-.134q-.169.18-.258.28-.089.102-.116.178-.028.065.009.137.035.061.116.173l.706.942q.133-.252.276-.505.143-.253.274-.537.057-.11.074-.174.027-.076-.009-.137-.036-.072-.147-.16-.112-.089-.312-.236l1.954-.122q-.297.167-.46.273-.164.095-.274.197-.111.092-.209.226-.088.122-.233.343-.107.155-.28.441l-.412.694 1.134 1.53q.162.213.265.334.103.12.215.22.122.088.287.183.176.096.483.257z" fill="#a00"/><path d="M7.74 6.359q.16-.01.311.044.162.043.295.14.133.088.216.231.082.133.093.302.017.275-.171.488-.178.202-.453.22-.211.012-.387-.093-.167-.117-.303-.257-.136-.15-.25-.26-.102-.121-.187-.116-.074.005-.17.149-.088.132-.172.318-.074.174-.127.347-.053.162-.048.236l.121 1.954q.019.296.061.463.042.157.143.256.101.09.275.153.174.063.446.174l-2.398.15q.234-.153.367-.236.142-.094.21-.204.067-.11.08-.26.01-.159-.007-.434L5.55 7.96q-.016-.264-.047-.41-.02-.148-.089-.239-.07-.102-.201-.168-.132-.076-.373-.189.377-.087.74-.215.363-.129.702-.31l.072 1.152q.104-.187.24-.397.146-.21.315-.38.18-.18.385-.3.214-.13.447-.144z" fill="#a00"/><path d="M12.326 10.119q.095-.006.188-.043.093-.038.174-.096-.019.202-.104.377-.075.154-.215.29-.14.136-.391.183-.115.028-.267-.026-.142-.065-.232-.144-.1-.09-.16-.192-.06-.113-.11-.247-.153.115-.315.242-.15.126-.314.232-.152.105-.296.177-.144.073-.26.08-.275.017-.514-.074-.228-.092-.408-.25-.18-.17-.289-.385-.099-.227-.114-.47-.046-.73.77-1.077.228-.088.476-.189.248-.11.464-.209.217-.098.38-.193.175-.096.255-.175l-.013-.2q-.017-.275-.096-.525t-.208-.443q-.118-.194-.294-.3-.166-.106-.367-.094-.084.005-.186.065-.093.048-.173.117-.081.069-.15.147-.07.068-.1.112-.03.034-.024.108l.01.169.032.178q.017.095.011.17.011.01.012.02.012.19-.117.336-.13.135-.309.146-.19.012-.335-.106-.136-.13-.148-.32-.015-.243.177-.392.03-.023.06-.057.04-.034.092-.07.1-.08.252-.195.163-.117.346-.234.195-.118.4-.216.206-.098.425-.164.232-.015.459.045.226.05.414.176.289.215.422.483.144.266.17.668l.122 1.975q.022.349.136.48.124.119.262.11zm-1.279-.1q.042-.353.09-.78.057-.438.098-.802-.083.037-.218.078-.136.04-.28.091l-.271.08q-.125.04-.219.068-.302.093-.494.242-.182.139-.217.428-.02.202.033.358.052.156.144.267.09.1.212.167.13.055.248.07.203.029.453-.05t.421-.217z" fill="#a00"/><path d="M16.976 10.429l.002.054.103-.006-.105-.048z"/><path d="M15.085 5.349L13.957 3.28l-1.648.103c.205.122.363.218.473.29a.883.883 0 0 1 .238.228.786.786 0 0 1 .093.302c.007.113.013.268.018.465l.22 4.376c.012.304.016.54.012.71-.01.17-.044.31-.1.42a.88.88 0 0 1-.3.295c-.136.086-.33.197-.584.333l2.928-.183-.002-.054c-.185-.08-.36-.157-.473-.213a.718.718 0 0 1-.302-.257.868.868 0 0 1-.131-.406 18.117 18.117 0 0 1-.055-.707l-.3-4.646c.224.431.468.879.73 1.343l.35.627z" fill="#a00"/><path d="M15.085 5.349l.04.957.413.736.726 1.27c.223.395.414.74.574 1.035.039.06.029.128-.03.203-.06.067-.13.132-.21.193a1.804 1.804 0 0 1-.338.212l.866-.054.033-.002a.367.367 0 0 0 .344-.255c.115-.297.267-.66.452-1.088.178-.429.372-.89.581-1.383.202-.5.407-1.015.615-1.544.207-.53.398-1.04.572-1.531.111.99.2 1.804.269 2.443a353.223 353.223 0 0 0 .23 2.319l.02.317c.01.162.01.289.002.381a.462.462 0 0 1-.101.25 1.428 1.428 0 0 1-.303.242c-.136.08-.335.187-.595.324l2.694-.169c-.241-.12-.427-.214-.559-.283a1.292 1.292 0 0 1-.299-.204.542.542 0 0 1-.141-.225 2.425 2.425 0 0 1-.097-.364l-.037-.253a3.541 3.541 0 0 1-.053-.346c-.024-.147-.05-.33-.077-.547l-.106-.852c-.05-.35-.108-.771-.174-1.262l-.239-1.777a2.072 2.072 0 0 1-.032-.348.335.335 0 0 1 .09-.25c.06-.081.163-.169.313-.263.142-.1.35-.234.622-.4l-1.986.125L17.01 8.88z" fill="#a00"/><g fill="#333"><path d="M29.03 5.82l-.04-.914-1.665 3.567-2.519-5.778h-1.99c.283.148.498.268.646.36.155.084.265.165.328.243.07.07.106.152.106.243a2.06 2.06 0 0 1-.01.35l-.128 1.788c-.035.494-.067.918-.095 1.27l-.053.858c-.014.218-.028.402-.042.55a3.495 3.495 0 0 1-.032.349l-.021.254a2.435 2.435 0 0 1-.074.37.541.541 0 0 1-.127.233c-.064.07-.159.145-.286.222-.127.078-.307.184-.54.318h2.699c-.268-.12-.473-.215-.614-.286a1.427 1.427 0 0 1-.317-.222.462.462 0 0 1-.116-.243 2.655 2.655 0 0 1-.022-.382v-.317a264.426 264.426 0 0 0 .085-2.328c.028-.642.067-1.46.116-2.456.205.48.427.978.667 1.493s.476 1.016.709 1.503c.24.48.462.928.667 1.344.211.416.384.769.518 1.058.071.155.19.233.36.233h.9a1.8 1.8 0 0 1-.35-.19 1.445 1.445 0 0 1-.222-.18c-.063-.071-.078-.138-.042-.201.14-.304.31-.66.508-1.07l.645-1.312c.117-.24.234-.485.35-.727z"/><path d="M29.21 10.11h2.855a9.872 9.872 0 0 1-.603-.297.881.881 0 0 1-.318-.275 1.056 1.056 0 0 1-.126-.413 12.53 12.53 0 0 1-.032-.709l-.053-4.381c-.007-.198-.01-.353-.01-.466a.785.785 0 0 1 .074-.307.882.882 0 0 1 .222-.243c.106-.078.257-.183.455-.317h-1.651l-1.033 2.21.039.914c.109-.226.218-.451.327-.68.233-.48.448-.942.645-1.386l-.01 4.656c0 .304-.003.54-.01.71a.866.866 0 0 1-.106.412.717.717 0 0 1-.286.275c-.092.053-.242.13-.383.203z"/><path d="M29.21 10.11l-.004-.094c-.066.033-.102.056-.178.094zM41.06 10.11q.254-.148.391-.233.148-.095.212-.201.063-.106.074-.254.01-.159.01-.434V7.242q0-.275-.042-.55-.042-.286-.148-.509-.095-.222-.264-.36-.16-.137-.403-.137-.232 0-.508.138-.275.137-.486.412-.201.265-.18.593.01.053.01.19v2.033q0 .243.01.391.012.138.075.233.064.095.19.19.138.096.392.244H38.16q.275-.148.423-.233.16-.095.223-.19.074-.106.084-.254.01-.149.01-.403V7.231q0-.286-.03-.55-.022-.275-.117-.476-.085-.212-.244-.35-.158-.137-.423-.158-.159-.011-.35.074-.19.074-.37.211-.169.127-.307.286t-.18.307V9.03q0 .254.011.402.01.149.074.254.064.096.19.191.138.085.392.233h-2.243q.285-.148.434-.233.148-.095.222-.19.074-.106.084-.255.011-.148.011-.402V6.871q0-.254-.01-.391-.011-.148-.075-.244-.053-.106-.18-.2-.127-.096-.36-.244.741-.117 1.45-.413v.836q.16-.116.34-.254.18-.137.433-.286.19-.127.381-.19.19-.074.445-.074.37 0 .666.222.307.222.466.624.222-.169.423-.306l.403-.276q.18-.116.38-.19.212-.074.445-.074.614 0 .963.423.35.413.35 1.175V9.03q0 .265.01.413t.074.254q.064.095.19.19.138.085.382.223zM45.29 5.36q.476 0 .889.18.412.17.709.476.296.307.465.73.17.413.17.91 0 .625-.212 1.09-.2.456-.529.762-.328.297-.72.445-.391.148-.772.148-.53 0-.953-.19-.423-.201-.72-.519t-.455-.73q-.148-.413-.148-.847 0-.413.096-.74.095-.34.264-.604.17-.275.392-.476t.465-.339v-.01q.01 0 .01-.011.117-.074.054-.127-.064-.053-.19-.085-.149-.042-.382-.063zm1.302 2.974q.148-.35.169-.73.032-.382-.064-.73-.084-.35-.285-.615-.19-.275-.477-.391-.2-.085-.455-.085-.243 0-.497.127-.254.117-.498.36-.243.243-.412.656-.19.455-.244.91-.042.445.032.836.074.381.254.667.18.286.444.392.202.084.466.063.265-.032.54-.19.275-.17.54-.477.275-.306.486-.793z"/><path d="M50.35 5.39q.158 0 .307.063.158.053.285.16.127.094.201.242.075.138.075.307 0 .276-.202.477-.19.19-.465.19-.212 0-.381-.116-.159-.127-.286-.275-.127-.16-.233-.276-.095-.127-.18-.127-.074 0-.18.138-.095.127-.19.307-.085.17-.148.339-.064.158-.064.232V9.01q0 .297.032.466.032.159.127.265.095.095.265.169.169.074.433.201h-2.402q.243-.138.381-.212.148-.084.222-.19.074-.106.095-.254.022-.159.022-.434V6.85q0-.264-.022-.412-.01-.149-.074-.244-.063-.106-.19-.18-.127-.085-.36-.211.381-.064.751-.17.37-.106.72-.264v1.153q.117-.18.265-.38.158-.202.338-.36.19-.17.403-.276.222-.116.455-.116z"/><path d="M56.19 5.36q-.434.296-.752.762-.307.465-.54 1.005-.232.53-.423 1.09-.18.55-.37 1.027l.01-.01q-.084.211-.222.518-.127.307-.307.645-.17.34-.38.667-.202.339-.435.603-.222.265-.487.424-.254.17-.518.17-.275 0-.476-.213-.19-.211-.19-.476 0-.275.2-.476.212-.19.487-.19.233 0 .455.042t.466.042q.37 0 .529-.201.159-.19.159-.55 0-.297-.17-.805-.158-.518-.391-1.069-.222-.56-.455-1.08-.233-.528-.36-.856-.095-.244-.17-.381-.074-.138-.169-.233-.084-.106-.222-.201l-.339-.254h2.128q-.053.042-.138.106l-.159.137q-.074.074-.127.159-.053.085-.053.159 0 .063.064.275.074.2.18.497.116.286.243.625.138.328.254.635.127.296.222.529.096.233.138.328.042-.095.127-.318.095-.232.201-.529.116-.296.233-.614l.212-.603q.105-.286.169-.497t.063-.275q0-.085-.074-.17-.074-.095-.18-.18-.105-.084-.211-.148-.096-.074-.16-.116zM35.25 9.11q-.244.307-.498.508-.243.19-.476.307-.222.106-.413.148-.18.032-.307.032-.465 0-.846-.18-.37-.18-.635-.477-.254-.306-.392-.698-.137-.402-.137-.847 0-.529.169-.984.18-.466.497-.804.318-.37.72-.561.402-.19.804-.19.328 0 .614.137.296.127.498.35.211.221.328.507.127.286.127.593-.011.148-.053.233-.032.074-.148.105-.085.022-.35.043-.264.02-.645.053l-.836.042q-.455.021-.91.032-.011.518.126.889.138.36.36.592.223.233.498.35.275.105.55.105.318 0 .635-.063t.72-.222zm-1.831-3.62q-.18.022-.339.17-.159.137-.286.37-.116.222-.2.519-.075.285-.085.603.434-.053.857-.117.434-.063.878-.148.138-.02.18-.074.053-.053.032-.17-.021-.2-.085-.422-.053-.223-.17-.392-.105-.18-.295-.275-.191-.106-.487-.064z"/></g><path d="M21.684.02l.642 13.633" fill="#333" stroke="#333" stroke-width=".635"/></svg>