<?xml version="1.0" encoding="UTF-8"?>
<svg width="56.187mm" height="13.663mm" version="1.1" viewBox="0 0 56.186829 13.662545" xmlns="http://www.w3.org/2000/svg" xmlns:cc="http://creativecommons.org/ns#" xmlns:dc="http://purl.org/dc/elements/1.1/" xmlns:rdf="http://www.w3.org/1999/02/22-rdf-syntax-ns#">
<metadata>
<rdf:RDF>
<cc:Work rdf:about="">
<dc:format>image/svg+xml</dc:format>
<dc:type rdf:resource="http://purl.org/dc/dcmitype/StillImage"/>
<dc:title/>
</cc:Work>
</rdf:RDF>
</metadata>
<g transform="translate(-78.26 -124.52)">
<g transform="translate(.51972 -4.6302)">
<g transform="translate(48.797 7.6292)">
<path d="m31.867 132.89q0.20137-0.17162 0.30172-0.26271 0.11026-0.10227 0.13799-0.16767 0.03763-0.0766 2e-3 -0.13798-0.03564-0.0614-0.10627-0.17363l-0.88121-1.2069q-0.33279 0.61459-0.62596 1.1843-0.06537 0.14192-0.09179 0.22841-0.02641 0.0865 0.01055 0.169 0.04686 0.0713 0.15908 0.17034 0.12212 0.0878 0.35449 0.24298l-2.0281 0.12654q0.29578-0.18811 0.45885-0.29372 0.16241-0.11617 0.27267-0.21849 0.11026-0.10226 0.19873-0.21388 0.08782-0.12212 0.22317-0.33204 0.20205-0.33073 0.39353-0.66078 0.20204-0.33073 0.42192-0.71559l-1.0093-1.3898q-0.13862-0.18222-0.21981-0.29379-0.08119-0.11158-0.19209-0.1895-0.10099-0.0891-0.26537-0.17431-0.15381-0.0859-0.43899-0.2377l2.1548-0.13446q-0.16902 0.18021-0.25816 0.2812-0.08914 0.10095-0.11621 0.17692-0.02773 0.0654 0.0086 0.13732 0.03564 0.0614 0.11683 0.17298l0.70563 0.94213q0.13272-0.25217 0.276-0.50501 0.14328-0.25282 0.27402-0.53668 0.05679-0.10958 0.07396-0.17428 0.02707-0.0759-0.0086-0.13732-0.0363-0.072-0.14786-0.16043-0.11156-0.0884-0.31158-0.23506l1.9541-0.12193q-0.29709 0.167-0.46017 0.27261-0.16373 0.0951-0.27399 0.19735-0.11092 0.0918-0.20864 0.2251-0.08781 0.12213-0.23308 0.34326-0.10696 0.15514-0.27996 0.44164-0.16309 0.27527-0.41268 0.69379l1.1347 1.5304q0.16172 0.21259 0.26469 0.33341 0.10298 0.12082 0.21519 0.21986 0.12212 0.0878 0.28715 0.18355 0.1756 0.0951 0.48256 0.2562z" fill="#a00"/>
<path d="m36.684 127.88q0.15844-0.01 0.31028 0.0443 0.16174 0.0429 0.29508 0.14064 0.13268 0.0871 0.21585 0.23042 0.0825 0.13271 0.09305 0.30171 0.01714 0.27463-0.17103 0.48785-0.17827 0.20199-0.4529 0.21913-0.21126 0.0132-0.38751-0.0925-0.16635-0.11687-0.30233-0.25683-0.13664-0.15053-0.24952-0.26014-0.10297-0.12082-0.18748-0.11555-0.07394 5e-3 -0.171 0.14852-0.08716 0.13269-0.17102 0.31819-0.07396 0.17427-0.12679 0.34724-0.05349 0.1624-0.04888 0.23633l0.12193 1.9541q0.01846 0.29577 0.06069 0.46279 0.04158 0.15647 0.14323 0.25616 0.10099 0.0891 0.27462 0.15253 0.17362 0.0634 0.4456 0.17367l-2.3978 0.14961q0.23438-0.15247 0.36708-0.23498 0.1426-0.0938 0.20996-0.20397 0.06735-0.11024 0.07925-0.25944 0.01124-0.15976-0.0059-0.43439l-0.13512-2.1654q-0.01648-0.26407-0.04683-0.41063-0.01979-0.14722-0.0891-0.23833-0.06997-0.10167-0.20134-0.16771-0.13203-0.0766-0.37232-0.18884 0.37631-0.0871 0.73941-0.21581 0.36311-0.12869 0.70179-0.30888l0.07184 1.1513q0.10498-0.18681 0.24034-0.39674 0.14592-0.21057 0.3156-0.38022 0.17958-0.18087 0.38425-0.29968 0.21457-0.13003 0.44695-0.14453z" fill="#a00"/>
<path d="m41.269 131.64q0.09506-6e-3 0.18816-0.0435 0.09309-0.0377 0.17429-0.0957-0.01917 0.20267-0.10368 0.3776-0.07528 0.15315-0.21524 0.28913-0.13997 0.13599-0.3915 0.18349-0.11487 0.0284-0.2667-0.0257-0.14193-0.0654-0.2317-0.1446-0.10099-0.0891-0.1604-0.19147-0.06007-0.11289-0.11088-0.24758-0.15185 0.11552-0.3136 0.24225-0.15119 0.12608-0.31426 0.23169-0.15251 0.10501-0.29643 0.17756-0.14392 0.0726-0.26012 0.0798-0.27463 0.0171-0.5136-0.074-0.22841-0.0918-0.40796-0.25025-0.18021-0.16903-0.28912-0.38491-0.099-0.22711-0.11416-0.47006-0.04548-0.72882 0.77053-1.0766 0.22777-0.0885 0.476-0.18876 0.24758-0.11084 0.46412-0.20922 0.21654-0.0984 0.38028-0.1934 0.17429-0.0957 0.25418-0.17492l-0.01252-0.20069q-0.01714-0.27464-0.09633-0.52419t-0.20791-0.44299q-0.11815-0.1941-0.29441-0.29975-0.16569-0.10631-0.36638-0.0938-0.08451 5e-3 -0.18684 0.0647-0.09243 0.0481-0.17298 0.11683-0.08055 0.0686-0.14987 0.14721-0.06998 0.068-0.09904 0.11221-0.02971 0.0336-0.0251 0.1076 0.0046 0.074 0.01055 0.16902 0.01583 0.0839 0.03233 0.17824 0.01649 0.0943 0.01055 0.16901 0.01122 0.01 0.01188 0.0205 0.01186 0.19013-0.11688 0.33602-0.12941 0.13532-0.30898 0.14653-0.19013 0.0119-0.33536-0.10632-0.13532-0.12942-0.14719-0.31955-0.01516-0.24294 0.17697-0.39278 0.03037-0.0231 0.06008-0.0567 0.04027-0.0343 0.09111-0.0693 0.10101-0.0806 0.25286-0.19605 0.16241-0.11617 0.34595-0.23367 0.1941-0.11815 0.40008-0.21583 0.20598-0.0977 0.42451-0.16434 0.23238-0.0145 0.45881 0.0456 0.22577 0.0495 0.41391 0.17565 0.28913 0.21524 0.42246 0.48263 0.14389 0.26671 0.16894 0.6681l0.12325 1.9752q0.02175 0.34857 0.13595 0.4793 0.1241 0.1195 0.26142 0.11093zm-1.2787-0.10047q0.04163-0.35253 0.0892-0.77965 0.05748-0.43835 0.09845-0.80143-0.08253 0.0369-0.21786 0.0772-0.13534 0.0402-0.28058 0.0918-0.13534 0.0402-0.27068 0.0805-0.12477 0.0397-0.21852 0.0666-0.30171 0.0931-0.49383 0.24288-0.18222 0.13862-0.21724 0.42711-0.01917 0.20267 0.03297 0.35847 0.05213 0.15581 0.14389 0.26673 0.0911 0.10035 0.2119 0.16705 0.13071 0.0555 0.24822 0.0694 0.20333 0.0297 0.45288-0.0495t0.42121-0.21715z" fill="#a00"/>
<path d="m45.919 131.95 0.0021 0.0537 0.10335-6e-3c-0.045-0.0191-0.06401-0.0296-0.10542-0.0475z"/>
<path d="m44.028 126.87-1.1281-2.0686-1.648 0.10284c0.20552 0.12149 0.36341 0.218 0.47387 0.28887 0.10342 0.0713 0.18263 0.1475 0.23719 0.22893 0.04753 0.0819 0.07851 0.18252 0.09302 0.30178 7e-3 0.11268 0.01334 0.268 0.0186 0.46561l0.21962 4.376c0.01185 0.30323 0.01594 0.53963 0.0124 0.70952-0.01058 0.17032-0.04398 0.31055-0.10077 0.42013-0.06383 0.11002-0.16372 0.20831-0.29972 0.29455-0.136 0.0862-0.33035 0.19734-0.58343 0.33332l2.928-0.18294-0.0021-0.0537c-0.18575-0.0804-0.35948-0.15691-0.47284-0.21342-0.13863-0.0691-0.23938-0.15472-0.30231-0.25683-0.06997-0.10168-0.11367-0.2371-0.13126-0.40567-0.01759-0.16856-0.03588-0.40413-0.05478-0.70693l-0.30076-4.6467c0.22486 0.43133 0.46844 0.87924 0.7307 1.3436 0.11709 0.21037 0.23389 0.41745 0.35088 0.62632z" fill="#a00"/>
<path d="m44.028 126.87 0.04031 0.95653c0.13758 0.24563 0.27544 0.49282 0.4129 0.73639 0.2539 0.44366 0.49592 0.86644 0.72605 1.2692 0.22266 0.39612 0.41388 0.74159 0.57361 1.0356 0.03917 0.0611 0.02901 0.12867-0.02997 0.20309-0.05942 0.0674-0.12933 0.13169-0.21032 0.19327-0.09419 0.0766-0.20665 0.14718-0.33693 0.21187l0.8661-0.0538 0.03204-2e-3c0.16901-0.0105 0.28341-0.0954 0.34416-0.25477 0.11578-0.29706 0.26684-0.66017 0.45217-1.0888 0.17829-0.42821 0.37181-0.88907 0.58136-1.3829 0.20206-0.50039 0.40708-1.0151 0.61443-1.5441 0.20735-0.52899 0.39824-1.0391 0.57257-1.5307 0.11125 0.98983 0.20056 1.8042 0.26872 2.4433 0.06067 0.63246 0.1099 1.1346 0.14728 1.5069 0.03737 0.37234 0.06458 0.64328 0.08216 0.81184 0.01011 0.16196 0.01708 0.26749 0.02015 0.31677 0.01011 0.16197 0.01096 0.28895 0.0026 0.38138-0.0084 0.0924-0.0423 0.17574-0.10128 0.25011-0.06603 0.0748-0.16682 0.1556-0.30282 0.24184-0.13644 0.0792-0.33468 0.18709-0.5948 0.3235l2.6934-0.16847c-0.24073-0.11929-0.42704-0.21363-0.55862-0.28318-0.13159-0.0695-0.23092-0.13767-0.29869-0.20413-0.06777-0.0665-0.1152-0.14109-0.14159-0.22427-0.03388-0.0898-0.06585-0.21124-0.09664-0.36484-0.01231-0.0841-0.02489-0.16812-0.03721-0.25218-0.0198-0.0907-0.0374-0.20634-0.05323-0.34675-0.02331-0.147-0.04878-0.32932-0.07648-0.54673-0.02815-0.22447-0.0638-0.50842-0.10645-0.85215-0.05013-0.35034-0.10818-0.7712-0.17415-1.2619-0.06641-0.49777-0.14588-1.0901-0.23823-1.7772-0.02332-0.147-0.03381-0.26284-0.03204-0.34778-0.0057-0.0915 0.02439-0.17478 0.09043-0.2496 0.05855-0.0814 0.16248-0.16886 0.31213-0.26303 0.14217-0.10077 0.34974-0.23401 0.62218-0.39946l-1.9859 0.12406-2.1544 5.9237z" fill="#a00"/>
</g>
<g fill="#333">
<path d="m106.77 134.97-0.0388-0.91415-1.666 3.5677-2.5187-5.7785h-1.9896c0.28222 0.14817 0.49728 0.26795 0.64544 0.35967 0.15522 0.0847 0.26465 0.16578 0.32815 0.24339 0.0705 0.0705 0.10542 0.15167 0.10542 0.2434 7e-3 0.0847 4e-3 0.20116-0.0103 0.34933-0.0494 0.69144-0.0918 1.2876-0.12713 1.7885-0.0353 0.49389-0.0669 0.91743-0.0951 1.2702-0.0212 0.34572-0.0386 0.63153-0.0527 0.85731-0.0141 0.21872-0.0283 0.40219-0.0424 0.55036-7e-3 0.14111-0.0179 0.25709-0.032 0.34881-7e-3 0.0847-0.0141 0.16958-0.0212 0.25425-0.0212 0.15522-0.0457 0.27879-0.0739 0.37052-0.0212 0.0847-0.0636 0.16199-0.12712 0.23254-0.0635 0.0706-0.15877 0.1446-0.28577 0.22221-0.127 0.0776-0.30667 0.18376-0.5395 0.31781h2.6985c-0.26811-0.11994-0.47281-0.21522-0.61392-0.28577-0.14111-0.0776-0.24673-0.15165-0.31729-0.22221-0.0635-0.0705-0.10216-0.15167-0.11627-0.24339-0.0141-0.0917-0.0212-0.21909-0.0212-0.38138v-0.31729c7e-3 -0.16932 0.0174-0.44099 0.0315-0.81493 0.0141-0.37395 0.0315-0.87861 0.0527-1.5136 0.0282-0.64205 0.0674-1.4603 0.11679-2.4551 0.20461 0.47978 0.42673 0.97736 0.66662 1.4924s0.47617 1.0159 0.709 1.5028c0.23989 0.47978 0.46202 0.92783 0.66663 1.3441 0.21167 0.41627 0.38478 0.76905 0.51883 1.0583 0.0706 0.15522 0.19034 0.23254 0.35967 0.23254h0.89965c-0.13406-0.0564-0.25056-0.11961-0.34933-0.19017-0.0847-0.0564-0.15871-0.1163-0.22221-0.17983-0.0635-0.0706-0.0777-0.13756-0.0424-0.20102 0.14111-0.30339 0.31042-0.65997 0.50797-1.0692 0.20461-0.41628 0.41966-0.85345 0.64544-1.3121 0.11671-0.24072 0.23366-0.485 0.35037-0.72761z"/>
<path d="m106.95 139.26h2.8556c-0.26105-0.11994-0.46195-0.21901-0.60306-0.29662-0.14111-0.0776-0.24726-0.16908-0.31781-0.27492-0.0635-0.10583-0.10544-0.24356-0.12661-0.41289-0.0141-0.16934-0.025-0.40562-0.032-0.709l-0.0527-4.3816c-7e-3 -0.19755-0.0109-0.35271-0.0109-0.4656 7e-3 -0.11994 0.0321-0.2223 0.0744-0.30696 0.0494-0.0847 0.12344-0.16578 0.22221-0.2434 0.10583-0.0776 0.2572-0.18324 0.45475-0.31729h-1.6511l-1.0325 2.2107 0.0388 0.91415c0.10907-0.2267 0.21805-0.45171 0.32712-0.68006 0.23283-0.47978 0.44788-0.94198 0.64543-1.3865l-0.0103 4.6566c0 0.30338-3e-3 0.53966-0.0103 0.709-7e-3 0.16933-0.0424 0.30706-0.10593 0.41289-0.0564 0.10584-0.15172 0.19731-0.28577 0.27492-0.0916 0.053-0.24247 0.12979-0.38344 0.20257z"/>
<path d="m106.95 139.26-4e-3 -0.0941c-0.0654 0.0337-0.10176 0.056-0.17777 0.0941z"/>
<path d="m118.8 139.26q0.254-0.14817 0.39158-0.23283 0.14817-0.0953 0.21167-0.20109 0.0635-0.10583 0.0741-0.254 0.0106-0.15875 0.0106-0.43391v-1.7462q0-0.27517-0.0423-0.55033-0.0423-0.28575-0.14816-0.508-0.0952-0.22225-0.26459-0.35984-0.15875-0.13758-0.40216-0.13758-0.23284 0-0.508 0.13758-0.27517 0.13759-0.48684 0.41275-0.20108 0.26459-0.17991 0.59267 0.0106 0.0529 0.0106 0.1905v2.032q0 0.24341 0.0106 0.39158 0.0106 0.13758 0.0741 0.23283 0.0635 0.0953 0.1905 0.1905 0.13758 0.0952 0.39158 0.24342h-2.2331q0.27516-0.14817 0.42333-0.23283 0.15875-0.0953 0.22225-0.1905 0.0741-0.10584 0.0847-0.254 0.0106-0.14817 0.0106-0.40217v-1.7992q0-0.28575-0.0317-0.55034-0.0212-0.27516-0.11642-0.47625-0.0847-0.21166-0.24341-0.34925-0.15875-0.13758-0.42334-0.15875-0.15875-0.0106-0.34925 0.0741-0.1905 0.0741-0.37041 0.21166-0.16934 0.127-0.30692 0.28575t-0.17992 0.30692v2.4553q0 0.254 0.0106 0.40217 0.0106 0.14816 0.0741 0.254 0.0635 0.0952 0.1905 0.1905 0.13759 0.0847 0.39159 0.23283h-2.2437q0.28575-0.14817 0.43392-0.23283 0.14816-0.0953 0.22225-0.1905 0.0741-0.10584 0.0847-0.254 0.0106-0.14817 0.0106-0.40217v-2.159q0-0.254-0.0106-0.39158-0.0106-0.14817-0.0741-0.24342-0.0529-0.10583-0.17992-0.20108-0.127-0.0952-0.35983-0.24342 0.74083-0.11641 1.4499-0.41275v0.83609q0.15875-0.11642 0.33867-0.254 0.17992-0.13759 0.43392-0.28575 0.1905-0.127 0.381-0.1905 0.1905-0.0741 0.4445-0.0741 0.37041 0 0.66675 0.22225 0.30691 0.22225 0.46566 0.62442 0.22225-0.16933 0.42334-0.30692 0.20108-0.13758 0.40216-0.27516 0.17992-0.11642 0.381-0.1905 0.21167-0.0741 0.4445-0.0741 0.61384 0 0.96309 0.42334 0.34925 0.41275 0.34925 1.1748v2.0214q0 0.26458 0.0106 0.41275t0.0741 0.254q0.0635 0.0952 0.1905 0.1905 0.13758 0.0847 0.381 0.22225z"/>
<path d="m123.03 134.51q0.47625 0 0.889 0.17992 0.41275 0.16933 0.70908 0.47625 0.29633 0.30691 0.46567 0.73025 0.16933 0.41275 0.16933 0.91016 0 0.62442-0.21167 1.0901-0.20108 0.45509-0.52916 0.762-0.32809 0.29634-0.71967 0.4445-0.39158 0.14817-0.77258 0.14817-0.52917 0-0.9525-0.1905-0.42334-0.20108-0.71967-0.51858t-0.45508-0.73025q-0.14817-0.41275-0.14817-0.84667 0-0.41275 0.0952-0.74083 0.0952-0.33867 0.26458-0.60325 0.16934-0.27517 0.39159-0.47625t0.46566-0.33867q0-0.0106 0-0.0106 0.0106 0 0.0106-0.0106 0.11642-0.0741 0.0529-0.127-0.0635-0.0529-0.1905-0.0847-0.14816-0.0423-0.381-0.0635zm1.3018 2.9739q0.14816-0.34925 0.16933-0.73025 0.0317-0.381-0.0635-0.73025-0.0847-0.34925-0.28575-0.61384-0.1905-0.27516-0.47625-0.39158-0.20108-0.0847-0.45508-0.0847-0.24342 0-0.49742 0.127-0.254 0.11642-0.49742 0.35984-0.24341 0.24341-0.41275 0.65616-0.1905 0.45509-0.24341 0.91017-0.0423 0.4445 0.0317 0.83608 0.0741 0.381 0.254 0.66675 0.17991 0.28575 0.4445 0.39158 0.20108 0.0847 0.46566 0.0635 0.26459-0.0317 0.53975-0.1905 0.27517-0.16933 0.53975-0.47625 0.27517-0.30691 0.48684-0.79374z"/>
<path d="m128.09 134.54q0.15875 0 0.30692 0.0635 0.15875 0.0529 0.28575 0.15875 0.127 0.0952 0.20108 0.24341 0.0741 0.13759 0.0741 0.30692 0 0.27517-0.20108 0.47625-0.1905 0.1905-0.46566 0.1905-0.21167 0-0.381-0.11642-0.15875-0.127-0.28575-0.27516-0.127-0.15875-0.23284-0.27517-0.0952-0.127-0.17991-0.127-0.0741 0-0.17992 0.13758-0.0952 0.127-0.1905 0.30692-0.0847 0.16933-0.14817 0.33867-0.0635 0.15875-0.0635 0.23283v1.9579q0 0.29634 0.0317 0.46567 0.0318 0.15875 0.127 0.26458 0.0952 0.0952 0.26459 0.16934 0.16933 0.0741 0.43391 0.20108h-2.4024q0.24341-0.13758 0.381-0.21167 0.14816-0.0847 0.22225-0.1905 0.0741-0.10583 0.0952-0.254 0.0212-0.15875 0.0212-0.43391v-2.1696q0-0.26459-0.0212-0.41275-0.0106-0.14817-0.0741-0.24342-0.0635-0.10583-0.1905-0.17992-0.127-0.0847-0.35983-0.21166 0.381-0.0635 0.75141-0.16934 0.37042-0.10583 0.71967-0.26458v1.1536q0.11642-0.17991 0.26458-0.381 0.15875-0.20108 0.33867-0.35983 0.1905-0.16933 0.40217-0.27517 0.22225-0.11641 0.45508-0.11641z"/>
<path d="m133.93 134.51q-0.43391 0.29633-0.75141 0.762-0.30692 0.46567-0.53975 1.0054-0.23284 0.52916-0.42334 1.0901-0.17991 0.55033-0.37041 1.0266l0.0106-0.0106q-0.0847 0.21166-0.22225 0.51858-0.127 0.30692-0.30692 0.64558-0.16933 0.33867-0.381 0.66675-0.20108 0.33867-0.43391 0.60325-0.22225 0.26459-0.48684 0.42334-0.254 0.16933-0.51858 0.16933-0.27517 0-0.47625-0.21167-0.1905-0.21166-0.1905-0.47625 0-0.27516 0.20108-0.47625 0.21167-0.1905 0.48684-0.1905 0.23283 0 0.45508 0.0423t0.46567 0.0423q0.37041 0 0.52916-0.20108 0.15875-0.1905 0.15875-0.55034 0-0.29633-0.16933-0.80433-0.15875-0.51858-0.39158-1.0689-0.22225-0.56092-0.45509-1.0795-0.23283-0.52917-0.35983-0.85725-0.0952-0.24342-0.16933-0.381-0.0741-0.13759-0.16934-0.23284-0.0847-0.10583-0.22225-0.20108-0.127-0.0952-0.33866-0.254h2.1272q-0.0529 0.0423-0.13759 0.10583-0.0741 0.0635-0.15875 0.13759-0.0741 0.0741-0.127 0.15875-0.0529 0.0847-0.0529 0.15875 0 0.0635 0.0635 0.27516 0.0741 0.20109 0.17992 0.49742 0.11642 0.28575 0.24342 0.62442 0.13758 0.32808 0.254 0.635 0.127 0.29633 0.22225 0.52916 0.0952 0.23283 0.13758 0.32808 0.0423-0.0952 0.127-0.31749 0.0952-0.23284 0.20108-0.52917 0.11642-0.29633 0.23284-0.61383 0.11641-0.32809 0.21166-0.60325 0.10584-0.28575 0.16934-0.49742t0.0635-0.27517q0-0.0847-0.0741-0.16933-0.0741-0.0952-0.17992-0.17992-0.10583-0.0847-0.21167-0.14816-0.0952-0.0741-0.15875-0.11642z"/>
<path d="m112.99 138.26q-0.24341 0.30691-0.49741 0.508-0.24342 0.1905-0.47625 0.30691-0.22225 0.10584-0.41275 0.14817-0.17992 0.0317-0.30692 0.0317-0.46567 0-0.84667-0.17992-0.37041-0.17991-0.635-0.47625-0.254-0.30691-0.39158-0.6985-0.13758-0.40216-0.13758-0.84666 0-0.52917 0.16933-0.98425 0.17992-0.46567 0.49742-0.80433 0.3175-0.37042 0.71966-0.56092 0.40217-0.1905 0.80434-0.1905 0.32808 0 0.61383 0.13758 0.29633 0.127 0.49742 0.34925 0.21166 0.22225 0.32808 0.508 0.127 0.28575 0.127 0.59267-0.0106 0.14817-0.0529 0.23283-0.0318 0.0741-0.14816 0.10584-0.0847 0.0212-0.34925 0.0423-0.26459 0.0212-0.64559 0.0529-0.381 0.0212-0.83608 0.0423-0.45508 0.0212-0.91017 0.0317-0.0106 0.51858 0.127 0.889 0.13759 0.35983 0.35984 0.59266 0.22225 0.23284 0.49741 0.34925 0.27517 0.10584 0.55034 0.10584 0.3175 0 0.635-0.0635t0.71966-0.22225zm-1.8309-3.6195q-0.17992 0.0212-0.33867 0.16933-0.15875 0.13759-0.28575 0.37042-0.11642 0.22225-0.20108 0.51858-0.0741 0.28575-0.0847 0.60325 0.43391-0.0529 0.85725-0.11641 0.43391-0.0635 0.87841-0.14817 0.13759-0.0212 0.17992-0.0741 0.0529-0.0529 0.0317-0.16934-0.0212-0.20108-0.0847-0.42333-0.0529-0.22225-0.16933-0.39158-0.10583-0.17992-0.29633-0.27517-0.1905-0.10583-0.48684-0.0635z"/>
</g>
<path d="m99.424 129.17 0.6421 13.633" fill="#333" stroke="#333" stroke-width=".635"/>
</g>
</g>
</svg>
