<?xml version="1.0" standalone="no"?>
<!DOCTYPE svg PUBLIC "-//W3C//DTD SVG 20010904//EN"
 "http://www.w3.org/TR/2001/REC-SVG-20010904/DTD/svg10.dtd">
<svg version="1.0" xmlns="http://www.w3.org/2000/svg"
 width="700.000000pt" height="700.000000pt" viewBox="0 0 700.000000 700.000000"
 preserveAspectRatio="xMidYMid meet">
<metadata>
Created by potrace 1.11, written by Peter Selinger 2001-2013
</metadata>
<g transform="translate(0.000000,700.000000) scale(0.100000,-0.100000)"
fill="#000000" stroke="none">
<path d="M2405 6490 l-70 -5 1 -60 c2 -76 15 -385 19 -446 3 -46 16 -307 20
-409 5 -126 17 -379 20 -430 2 -30 6 -122 10 -205 3 -82 8 -188 10 -235 6
-113 13 -264 30 -615 3 -66 7 -160 10 -210 3 -49 7 -146 10 -215 10 -217 14
-322 19 -415 3 -49 8 -155 11 -235 3 -80 8 -174 10 -210 2 -36 7 -128 10 -205
3 -77 8 -176 10 -220 2 -44 7 -138 10 -209 l7 -129 -127 67 c-150 78 -197 110
-234 163 -24 32 -49 88 -57 128 -1 6 -7 31 -13 57 -6 27 -15 78 -21 115 -5 38
-12 79 -14 93 -2 14 -7 46 -10 71 -4 25 -9 57 -11 70 -3 21 -19 137 -30 219
-2 14 -6 54 -10 90 -4 36 -8 72 -10 80 -2 8 -7 42 -11 75 -3 33 -8 67 -9 76
-2 9 -6 40 -9 70 -4 30 -9 72 -13 94 -3 22 -7 49 -8 60 -2 11 -8 54 -14 95 -6
41 -13 95 -16 120 -3 25 -8 56 -10 70 -2 14 -7 45 -10 70 -3 25 -7 54 -9 65
-2 11 -7 47 -10 80 -9 82 -17 146 -22 170 -2 11 -7 47 -10 80 -4 33 -8 62 -9
65 -2 3 -6 33 -10 65 -3 33 -8 69 -10 80 -2 11 -7 47 -11 80 -3 33 -8 62 -9
66 -3 4 -17 128 -19 169 -2 55 16 101 61 147 45 47 181 143 321 227 34 21 62
39 62 41 0 1 -15 2 -32 0 -18 -2 -82 -6 -143 -10 -198 -11 -259 -15 -320 -20
-33 -2 -114 -7 -180 -11 -145 -7 -185 -11 -190 -16 -2 -2 -211 -574 -465
-1272 -466 -1281 -488 -1341 -489 -1319 -1 7 -34 72 -75 145 -40 73 -92 169
-116 213 -24 44 -78 143 -120 220 -42 77 -81 149 -86 160 -6 13 -10 -38 -12
-157 l-2 -177 108 -193 c224 -397 242 -432 242 -463 0 -43 -103 -137 -235
-214 -21 -12 -30 -12 250 4 213 13 232 23 288 165 35 87 105 258 122 295 7 17
32 75 55 130 23 55 49 116 57 135 8 19 19 44 24 55 183 430 463 1134 630 1585
37 102 69 177 70 168 1 -10 2 -21 3 -25 1 -5 5 -39 10 -78 13 -126 17 -160 21
-190 3 -26 15 -131 30 -270 2 -22 7 -67 10 -100 3 -33 8 -71 10 -85 3 -14 7
-52 10 -85 8 -82 14 -143 20 -185 2 -19 7 -66 10 -105 3 -38 7 -86 10 -105 6
-46 15 -142 20 -210 3 -30 7 -76 10 -102 3 -27 7 -70 10 -98 3 -27 7 -71 10
-97 2 -27 7 -73 10 -103 3 -30 7 -73 10 -95 2 -22 7 -71 11 -110 4 -38 8 -137
8 -220 1 -128 -2 -155 -18 -184 -37 -70 -113 -125 -321 -236 -38 -20 -74 -42
-80 -47 -7 -7 -7 -9 0 -6 6 3 71 9 145 13 74 3 153 8 175 10 22 2 83 6 135 9
190 12 276 17 330 21 30 2 107 6 170 10 63 3 124 8 135 10 31 6 40 -6 41 -55
2 -54 14 -329 19 -420 2 -36 6 -137 10 -225 3 -88 8 -187 10 -220 2 -33 7
-127 11 -210 4 -82 8 -172 10 -200 1 -27 3 -81 3 -118 l1 -69 83 6 c45 2 108
5 141 5 l58 1 -7 153 c-4 83 -8 175 -10 202 -1 28 -6 122 -10 210 -3 88 -8
194 -10 235 -3 41 -7 131 -10 200 -3 69 -8 168 -10 220 -2 52 -7 145 -10 205
-3 61 -7 157 -10 215 -13 291 -16 342 -20 425 -6 124 -14 286 -20 435 -5 119
-9 187 -19 400 -3 52 -8 156 -11 230 -3 74 -7 171 -10 215 -3 44 -7 134 -10
200 -16 358 -24 526 -30 645 -3 47 -7 137 -10 200 -10 233 -15 337 -20 435 -5
98 -9 180 -20 435 -3 68 -8 153 -10 190 -2 36 -7 142 -11 235 -4 94 -8 186 -9
205 -2 19 -3 50 -4 68 l-1 32 -67 -2 c-38 -2 -99 -5 -138 -8z"/>
<path d="M2990 5310 c0 -3 33 -23 73 -44 227 -122 331 -197 364 -260 21 -40
20 -174 -2 -416 -2 -19 -6 -82 -10 -140 -3 -58 -8 -121 -10 -140 -2 -19 -7
-80 -10 -135 -4 -55 -8 -116 -10 -135 -3 -30 -12 -157 -21 -285 -4 -58 -14
-201 -19 -265 -5 -72 -13 -192 -20 -314 -3 -54 -8 -119 -10 -145 -2 -25 -7
-89 -10 -141 -3 -52 -8 -111 -10 -130 -2 -19 -7 -64 -10 -100 -7 -80 -14 -138
-19 -165 -25 -125 -59 -188 -130 -242 -24 -18 -103 -69 -177 -113 l-134 -80
590 1 590 0 -154 75 c-181 87 -248 135 -282 201 -23 47 -24 54 -24 273 0 124
4 317 8 430 5 113 10 255 12 315 12 331 16 445 20 509 6 105 15 297 20 416 11
271 24 503 28 506 2 2 20 -38 41 -89 44 -103 266 -592 346 -762 29 -60 63
-135 77 -165 142 -306 680 -1384 700 -1401 42 -38 63 -41 257 -41 268 0 251
-3 178 36 -112 61 -202 139 -202 176 0 12 23 69 50 127 28 58 50 107 50 108 0
3 66 138 372 765 136 276 250 512 293 605 18 39 68 144 112 235 43 91 108 229
143 308 36 78 67 142 70 142 6 0 3 -1974 -4 -2230 -7 -289 -36 -336 -271 -460
-55 -29 -109 -59 -119 -66 -17 -11 82 -14 627 -14 591 0 692 4 629 24 -10 3
-74 35 -142 71 -153 81 -208 130 -238 218 -42 116 -42 123 -57 1422 -3 270 -8
650 -10 845 l-5 355 25 52 c30 66 76 111 192 191 51 34 94 66 97 70 3 5 -672
9 -707 3 -4 0 -16 -20 -26 -43 -22 -51 -67 -146 -150 -322 -34 -70 -61 -130
-61 -132 0 -1 -25 -56 -56 -121 -31 -65 -69 -146 -85 -180 -61 -133 -89 -192
-148 -316 -34 -71 -61 -130 -61 -132 0 -2 -24 -54 -54 -116 -29 -63 -65 -139
-79 -169 -14 -30 -48 -104 -77 -165 -29 -60 -63 -132 -75 -160 -24 -52 -65
-140 -144 -310 -26 -55 -74 -157 -106 -227 -33 -71 -62 -128 -65 -128 -3 0
-57 118 -120 263 -62 144 -126 289 -140 322 -15 33 -42 94 -60 135 -18 41 -40
93 -50 115 -39 88 -227 521 -305 700 -205 474 -427 980 -432 985 -6 6 -853 7
-853 0z"/>
<path d="M407 1904 c2 -7 11 -10 19 -7 19 7 18 10 -5 16 -13 3 -18 1 -14 -9z"/>
</g>
</svg>
